<?xml version="1.0" encoding="UTF-8" standalone="no"?>
<svg
   xmlns:dc="http://purl.org/dc/elements/1.1/"
   xmlns:cc="http://creativecommons.org/ns#"
   xmlns:rdf="http://www.w3.org/1999/02/22-rdf-syntax-ns#"
   xmlns:svg="http://www.w3.org/2000/svg"
   xmlns="http://www.w3.org/2000/svg"
   xmlns:sodipodi="http://sodipodi.sourceforge.net/DTD/sodipodi-0.dtd"
   xmlns:inkscape="http://www.inkscape.org/namespaces/inkscape"
   width="1024"
   height="1024"
   viewBox="0 0 65536 65536"
   version="1.1"
   id="svg2"
   inkscape:version="0.48.2 r9819"
   sodipodi:docname="octoface.svg"
   inkscape:export-filename="/Users/rougier/Development/Public/glumpy/examples/tools/octoface.png"
   inkscape:export-xdpi="90"
   inkscape:export-ydpi="90">
  <metadata
     id="metadata14">
    <rdf:RDF>
      <cc:Work
         rdf:about="">
        <dc:format>image/svg+xml</dc:format>
        <dc:type
           rdf:resource="http://purl.org/dc/dcmitype/StillImage" />
        <dc:title>octoface</dc:title>
      </cc:Work>
    </rdf:RDF>
  </metadata>
  <defs
     id="defs12" />
  <sodipodi:namedview
     pagecolor="#ffffff"
     bordercolor="#666666"
     borderopacity="1"
     objecttolerance="10"
     gridtolerance="10"
     guidetolerance="10"
     inkscape:pageopacity="0"
     inkscape:pageshadow="2"
     inkscape:window-width="1125"
     inkscape:window-height="744"
     id="namedview10"
     showgrid="false"
     inkscape:zoom="0.56835938"
     inkscape:cx="512"
     inkscape:cy="512"
     inkscape:window-x="0"
     inkscape:window-y="0"
     inkscape:window-maximized="0"
     inkscape:current-layer="svg2" />
  <title
     id="title4">octoface</title>
  <desc
     id="desc6">octoface</desc>
  <path
     d="m 54247.024,22646.332 c 399.608,-999.024 1748.296,-5095.024 -449.56,-10589.66 0,0 -3346.736,-1048.976 -10989.268,4145.952 -3196.877,-899.12 -6643.513,-999.024 -9990.244,-999.024 -3396.683,0 -6793.366,149.852 -10040.195,999.024 -7592.586,-5194.928 -10989.269,-4145.952 -10989.269,-4145.952 -2197.8538,5494.636 -849.171,9590.636 -449.561,10589.66 -2597.4636,2797.268 -4145.9512,6343.804 -4145.9512,10739.512 0,16433.948 10639.6102,20180.292 25525.0732,20180.292 14885.463,0 25624.975,-3696.392 25624.975,-20180.292 0,-4345.756 -1598.44,-7942.244 -4145.948,-10739.512 z M 32817.952,50369.26 c -10539.708,0 -19131.318,-499.516 -19131.318,-10739.512 0,-2447.612 1198.83,-4745.368 3246.829,-6593.564 3446.635,-3146.924 9240.976,-1498.536 15834.537,-1498.536 6593.561,0 12437.852,-1648.388 15834.536,1498.536 2048,1898.148 3246.832,4145.952 3246.832,6593.564 0,10239.996 -8591.612,10739.512 -19131.319,10739.512 z M 24775.805,34334.916 c -2097.951,0 -3846.244,2547.512 -3846.244,5694.444 0,3146.924 1698.342,5694.436 3846.244,5694.436 2097.952,0 3846.244,-2547.512 3846.244,-5694.436 0,-3146.932 -1698.342,-5694.444 -3846.244,-5694.444 z m 16084.291,0 c -2097.95,0 -3846.242,2547.512 -3846.242,5694.444 0,3146.924 1748.292,5694.436 3846.242,5694.436 2097.956,0 3846.248,-2547.512 3846.248,-5694.436 0,-3146.932 -1698.344,-5694.444 -3846.248,-5694.444 z"
     id="path8"
     inkscape:connector-curvature="0"
     style="fill:#000000;stroke:#000000;stroke-width:49.95121765" />
</svg>
